<svg xmlns="http://www.w3.org/2000/svg" width="512" height="512" viewBox="0 0 682.667 682"><path xmlns="http://www.w3.org/2000/svg" d="M651.813 179.035c-7.375-27.418-28.993-49.031-56.407-56.414-50.082-13.703-250.414-13.703-250.414-13.703s-200.324 0-250.406 13.184c-26.887 7.375-49.031 29.52-56.406 56.933C25 229.113 25 332.97 25 332.97s0 104.379 13.18 153.933c7.382 27.414 28.992 49.028 56.41 56.41C145.195 557.02 345 557.02 345 557.02s200.324 0 250.406-13.184c27.418-7.379 49.032-28.992 56.414-56.406 13.176-50.082 13.176-153.934 13.176-153.934s.527-104.383-13.183-154.46zM281.21 428.915V237.022l166.586 95.946zm0 0" fill="#fff" data-original="#000000"/></svg>